<svg xmlns="http://www.w3.org/2000/svg" width="700" height="700" xmlns:v="https://vecta.io/nano"><defs><clipPath id="A"><path transform="translate(1057 205)" fill="#fff" stroke="#707070" stroke-width="1" d="M0 0h700v700H0z"/></clipPath><clipPath id="B"><circle cx="1407" cy="1165" r="202" fill="#fff"/></clipPath><clipPath id="C"><ellipse cx="130.25" cy="38" rx="130.25" ry="38" transform="matrix(-.848 .53 -.53 -.848 1730.331 704.684)" fill="#eeedeb"/></clipPath><clipPath id="D"><circle cx="22.86" cy="22.86" fill="none" r="22.86"/></clipPath></defs><g clip-path="url(#A)" transform="translate(-1057 -205)"><g stroke="#f2b963"><g fill="none"><path d="M1585.25 576.61s82.56 21.01 115.97-37.41-12.17-101.93-32.49-143.35" stroke-width="70"/><path d="M1095.74 601.87c1.81-91.46 96.31-94.6 115.27-92.05s54.5 15.74 159.95 32.94" stroke-width="69.97"/></g><path d="M1631.93 347.46l-4.22-8.09-12.72-21.57a11.7 11.7 0 0 1-1.87-5.97c-.13-2.57 1.29-4.97 3.62-6.08a6 6 0 0 1 7.2.74 16.2 16.2 0 0 1 3.11 3.93l15.91 28.14c.78 1.38 1.25 3.11 3.36 3.65-.06-3.16-1.83-5.36-3.05-7.71l-13.45-25.5a10.9 10.9 0 0 1-1.04-5.5c.17-2.27 1.86-3.69 4.02-4.23s4.19-.35 5.63 1.55a53 53 0 0 1 3.85 6.19l13.57 24.75c.83 1.49 1.57 3.28 3.73 3.44.8-1.56-.02-2.75-.65-3.92l-9.71-17.82-1.17-2.25c-1.42-3.2-.92-6.03 1.32-7.67a6.6 6.6 0 0 1 9 .62 19.3 19.3 0 0 1 2.65 3.92q16.82 31.46 33.58 62.95l9.19 17c.24.45.43.94.61 1.35-1.64 1.84-55.34 32.7-59.28 34.05-.52-.77-1.13-1.59-1.67-2.46l-12.48-20.22c-2.36-3.8-3.2-4.13-7.4-2.87-4.41 1.33-8.89 2.39-13.6 2.11a19.9 19.9 0 0 1-13.59-6.03c-2.88-2.93-3.44-5.5-2.1-8.57 1.31-3.19 4.78-4.91 8.11-4.02 1.38.38 2.66 1.18 4.06 1.59 2.37.67 4.78 1.63 7.17 1.63 7.71-.01 12.89-6.04 12.39-14.05-.37-6.3-4.75-12.49-10.15-14.42-2.34-.87-4.92-.82-7.23.12a31.6 31.6 0 0 0-6.69 3.72c-2.27 1.67-3.15 4.34-3.32 7.18-.1 1.9.02 3.77-.04 5.7-.16 3.33-1.37 4.98-4.22 5.76-2.75.89-5.76-.14-7.4-2.53-2.35-3.55-2.58-7.5-2.06-11.59.8-6.23 4.27-10.79 8.53-14.83 6.57-6.22 14.25-9.22 23.34-7.91a31.9 31.9 0 0 1 12.84 5.03c.65.41 1.38.77 2.06 1.16z" fill="#f2b963"/></g><ellipse cx="130.25" cy="38" rx="130.25" ry="38" transform="matrix(-.848 .53 -.53 -.848 1730.331 704.684)" fill="#eeedeb"/><circle cx="1407" cy="511" r="202" fill="#0b5d51"/><g clip-path="url(#B)" transform="translate(0 -654)" fill="#1ba25f"><path d="M1595.92 1296.64c-.5-3.12-5.04-7.46 0-12.5s12.71-3.55 17.75-9.57 6-8.13 11.51-8.64 7.44-4.82 10.8-4.82 3.84 3.65 4.32 8.66 6.74 5.04 8.16 4.8 1.92-3.41 1.92-7.22 1.2-7.7 1.92-6.24 4.56 14.9 10.08 21.38 11.28 14.87 2.88 21.83-5.52 10.79-8.88 12.96-6.21 1.92-7.92 3.12-10.56-.46-10.56-3.12 3.12-10.37 0-11.06-2.64 3.12-6 3.12-.24-5.78-6.72-6.24-10.05 0-15.11 3.12-8.85.03-12.24 1.22-8.92 1.63-7.46-1.22 6.04-6.44 5.54-9.57zm49.65 27.84s6-1.2 7.2 0-.72 3.55-2.64 3.81-2.4 3.38-4.56 2.9 0-6.71 0-6.71zm37.19 10.04s-2.88 4.85 2.16 5.06 8.64-7.68 11.51-8.87 3.79-.24 7.89-1.2.74-6.98 5.06-8.9 3.12-2.85-1.2-3.81-.53-5.02-3.86-4.8-.43 5.3-1.66 6.48-7.92 3.79-4.8 4.29 6.02 2.9 2.16 2.42-4.8-3.17-5.04-2.42 1.44 2.42 0 3.62-12.23 8.13-12.23 8.13zm-18.71-75.3c-2.16 0-3.17-7.46-7.7-6.5s-3.09 5.06-7.41 3.63-3.6-4.08-5.52-7.2c-1.51-2.51-4.27-4-7.2-3.86-2.4 0-4.56-3.62-2.4-5.28s3.14 1.94 6 1.94 3.36-2.64 9.12 0 11.3 4.08 11.99 7.2 5.28 10.07 3.12 10.07zm-258.58 8.87c-5.32 5.27 6.85 36.79 12.65 38.42s12.12 9.49 19.5 0 8.43-24.82 12.65-25.3-4.22-8.38 0-10.49 9.43.53 9.43-6.32-7.85-15.4 2.69-24.83 17.29-19.45 17.87-22.08-7.33-.53-12.07-2.64-22.14-32.68-21.61-35.31 7.27 0 13.12 13.18 8.96 22.14 20.55 15.81 15.34-11.6 15.34-15.81-11.54-5.8-18.97-10.01-9.07-12.59 8.38-3.16 15.39 1.63 22.72 7.91 13.18 21.13 15.28 27.41 7.91 8.43 8.96 0 8.33-30.04 17.34-27.41.58 6.85 12.7 13.7 7.91 9.54 12.12 13.71 16.87 8.96 15.28 0-9.59-7.38-10.07-13.71.58-13.18 10.07-8.43 23.61-6.32 19.98-13.18-16.29-27.94-8.38-28.99 13.18 4.69 13.7 8.91 10.01 7.85 9.49 0-2.74-11.02 5.74-17.34-4.64-18.45-5.74-25.3-1.05-16.34 15.81-14.76 15.81-12.7 23.19-12.17 18.97 6.38 6.32 12.17-15.28 13.18-12.65 14.76 10.01 5.27 12.65 0-.11-12.65 6.27-14.76 6.9-8.01 12.18-9.54 10.54 5.75 12.12-2.63.05-11.6-12.12-13.71-25.83-2.58-40.58-2.58-18.39-9.07-42.16-8.49-20.03-2.11-31.1-4.74-8.54-15.81-24.82-11.6-34.21 15.76-41.59 16.34-7.91-4.22-12.12 0 5.8 12.6-4.22 11.07-13.7-.95-23.19 3.22-13.18 8.96-21.61 0-9.07-8.38-21.14-5.8-3.74 9.91-16.34 16.29-23.77 13.75-13.7 15.86 22.72-.53 22.72-3.69 3.11-23.72 7.33-16.87 7.85 30.04 0 31.62-11.54 3.74-19.98 0-10.07-6.32-10.07 0-.47 4.74-6.27 6.85-3.3 6.23-6.66 7-6.98 3.09-2 6.39 4.31 7.11-1.49 7.11-11.21 1.69-9.05 7.43.16 9.38 11.76 7.85-2.58-11.54 7.43-13.65 14.13-4.16 19.98 4.74 9.01 14.13 9.01 8.91-3.27-10.49-4.27-13.65 6.9-.53 7.43 4.74 2.53 12.54 4.16 8.91 1.16-21.56 8.49-8.91 16.34 12.65 12.65 18.45-12.23-1.53-21.14 0-10.07 6.85-11.6 5.8-3.64-14.34-13.12-15.34-22.77 8.01-28.51 9.54 1.53.53-11.6 10.54-2.16 38 6.85 41.11 25.35-8.43 33.26 8.43 10.08 33.73 4.75 39.01zm62.1 1.46c2.88-1.68 8.64-9.33 11.28-9.6s4.32 6.96 0 12.48-.48 12.24-5.28 14.63-10.08 2.16-8.16-4.08c1.23-4.38 1.95-8.89 2.16-13.43zm157.14-99.34c1.68 0 3.14-3.1 8.4-5.5s6.26-1.17 7.92-3.12 2.86-7.73 1.66-10.1-2.61-4.3-4.53-2.37-.96 6-3.12 8.16-9.12 3.31-10.32 5.73-1.68 7.2 0 7.2zm13.9-26.16c2.16-.22.72-4.06 5.76-1.66s2.9 3.31 0 3.81-7.92-1.94-5.76-2.16zm1.69-8.39s-2.66-16.77-6.98-18.45 1.7 16.51 6.98 18.45m-16.68 87.58c-.35-1.7-5.61-4.13-5.39-6.98s1.44-3.81 0-5.97-9.36-4.8-8.4-8.16-5.52-5.04-5.52-2.16 1.44 7.63 5.52 9.09 3.84 2.42 4.08 5.78 3.84 9.31 5.52 9.81 4.55.29 4.19-1.42zm-9.64 22.55c-.07 1.2-3.77-1.01 0-3.86s1.85-4.51-1.51-3.81-7.92 3.12-5.52 5.28 7.1 1.2 7.03 2.4zm-13.27 7.44c-.48 1.68-21.83-1.2-21.35-4.08s-3.57-3.36-4.32-4.56-5.76-14.15-11.99-17.03 6.24-1.46 11.99 6.93 10.32 8.42 9.6 11.3 0 4.53 2.4 4.53 14.15 1.22 13.67 2.9z"/><path d="M1587.97 1235.48c.74 1.92 4.34 3.14 4.58 5.28s1.68 3.09 5.04 2.13 2.16-.19 4.32.98.5 1.92 2.16-4.56.91-7.92 1.66-10.07 3.38-6.24-1.66-5.76-6.45 3.36-8.16 5.76-.48 5.52-3.36 4.56-5.32-.24-4.58 1.68zm-4.61-5.66s-11.76-4.72-12.85-8.16a13.3 13.3 0 0 0-3.96-5.7s-2.19-.42-.42 3.7 7.4 10 10.34 11.76 6.14 3.35 6.89 2.01 0-3.61 0-3.61zm-37.53-186.2s-11.48-5.4-18.45-4.26 7.1 6.83 10.65 6.69 7.81-2.43 7.81-2.43zm-51.1 6.24c-1.42.16-24.98 6.12-24.98 15.2s5.12 10.93 5.54 8.52-4.71-9.11 1.12-11.37 16.48-4.67 18.33-7.23 1.42-5.28 0-5.12zm-72.82-11.93c-3.99.16-18.17 2.54-18.03 6.1s4.97 12.19 6.81 12.49 1.29-4.53 2.98-6.52 1.99-2.15 4.4-1.01 3.12.15 3.12-1.69-2.13-1.57 0-3.28 4.94-1.39 5.38-2.83-.69-3.44-4.67-3.28zm-70.12 57.51s13.32-3.41 13.47-4.97 2.14-3.85-5.24-3.85-10.53 1.72-11.51 3.85-2.43 5.25 0 4.97a8.8 8.8 0 0 1 3.28 0zm25.98 17.6c1.14 1.85 4.68 3.98 3.26 6.39s-5.25 4.26-1.99 4.83 7.81-.14 7.38-3.27-2.7-9.09-5.39-9.8-4.41 0-3.27 1.85zm-5.97 2.69c-1.99.87-3.82 2.44-3.41 5.27s.3 3.97 2.55 3.69c2.37-.35 4.08-2.44 3.97-4.83-.14-2.41-1.14-4.99-3.12-4.13zm-58.76-7.1c3.26-5.82.71-11.36 12.35-15.05s14.8-1.84 15.85-8.52-4.38-10.1 1.88-16.48 2.99-10.06 5.27-15.74 14.31-8.23 7.08-9.08-6.69 4.54-12.35 0-8.08-10.68-17.73-7.96-14.93 10.66-26.28 10.09-29.51 3.41-25.68 10.22 5.08 3.27 13.33 8.38 9.53 3.12 10.24 12.06-.28 27.51 3.83 31.07 8.94 6.83 12.21 1.01zm-70.29-77.93c4.97.99 6.83 2.1 27.7-4.27s28.4-10.77 28.25-5.24-4.39 8.66-12.21 11.07-12.21 4.83-16.04 8.66-3.39 8.66-18.31 7.1-17.6-6.8-17.03-10.79 2.68-7.53 7.65-6.53zm-140.84 84.85s4.09 7.35 14.07-1.7 22.77-20.28 33.37-14.66 23.67 16.53 18.06 38.05-8.45 24.64 0 28.7 15.63 6.8 18.43 15.56 17.31 22.18 30.02 25.29 13.96 9.04 17.39 13.41 13.66.03 10.57 9.35-10.26 13.41-4.96 21.83 23.98 20.24 21.18 47.37-10.85 40.54 7.52 61.13-1.25-9.33 0-16.5 11.26-37.4 28.38-50.52 14.66-1.22 20.27-13.41-6.21-12.48 2.18-19.34 13.69-.62-5.33-17.47-42.07-29.32-48.31-29.32-9.04-2.18-11.23-2.18-5.05 6.17-9.7 5.89-7.14-2.46-7.14-5.89-.28-5.05-6.86-6.58-7.49-5.96-6.86-9.36-6.55 1.9-9.67 1.9-13.1-8.48-4.68-15.62 11.54-11.57 21.21-7.17 4.68 5.02 16.53-11.51 16.5-18.06 27.41-24.33 23.05-18.99 11.23-24.64-20.55-16.91-20.24-31.53-.31-17.43-14.03-18.68-8.08 7.73-20.9-12.82-38.11 10.95-45.56 15.31-20.86 7.79-41.14 4.37-32.43 1.9-34.62 8.11 6.21 15.62 6.21 20.58 2.22 8.42-3.09 10.91a83.4 83.4 0 0 0-9.69 5.45z"/></g><path d="M1606.89 765.19c-101.22-91.53-260.41-63.8-341.07-65.53-5.15.79-22.98-.01-22.98-.01s-149.07-7.19-147.25-98.65" fill="none" stroke="#f2b963" stroke-width="69.97"/><g clip-path="url(#C)"><path d="M1211.01 509.82c-18.97-2.56-113.46.59-115.27 92.05s147.1 97.79 147.1 97.79 17.84.8 22.98.01c80.66 1.73 256.5-32.01 359.1 85.41" fill="none" stroke="#f2b963" stroke-width="69.97"/></g><path d="M1399.49 543.61a38.4 38.4 0 0 1-22.36-7.93c-.54-.44-.8-1.14-.67-1.83s.6-1.26 1.26-1.49 1.39-.1 1.92.35h0c.77.65 19.07 15.64 38.31 0 .83-.68 2.05-.55 2.73.28s.55 2.05-.28 2.73c-7.27 5.95-14.47 7.88-20.9 7.88z" stroke="#000" stroke-miterlimit="10" stroke-width="2"/><g fill="#fff"><circle cx="1428.29" cy="501.96" r="22.86"/><circle cx="1372.11" cy="501.96" r="22.86"/></g><g transform="translate(1404.48 479.1)" clip-path="url(#D)"><circle cx="2.38" cy="22.87" r="27.57"/></g><g transform="translate(1349.25 479.1)" clip-path="url(#D)"><circle cx="2.37" cy="22.87" r="27.57"/></g><g fill="#fff"><path d="M1502.98 459.66l-18.63-5.77-5.14-17.8-4.82 17.8-18.95 5.77 18.95 5.65 4.82 18.53 5.14-18.53zm6.09 18.93l-7.3-2.26-2.02-6.98-1.89 6.98-7.43 2.26 7.43 2.22 1.89 7.27 2.02-7.27z"/></g></g></svg>